<svg width="52" height="48" viewBox="0 0 52 48" fill="none" xmlns="http://www.w3.org/2000/svg">
<rect x="16.8552" y="11.4759" width="29.4069" height="15.0621" rx="2" fill="#48484A"/>
<circle cx="29.0483" cy="7.88965" r="7.88965" fill="#48484A"/>
<circle cx="19.0069" cy="17.931" r="8.6069" fill="#48484A"/>
<circle cx="40.8828" cy="12.5517" r="5.37931" fill="#48484A"/>
<circle cx="45.9035" cy="20.4414" r="6.09655" fill="#48484A"/>
<rect x="6.4552" y="16.6759" width="29.4069" height="15.0621" rx="2" fill="#F2F2F1"/>
<circle cx="18.6483" cy="13.0897" r="7.88965" fill="#F2F2F1"/>
<circle cx="8.6069" cy="23.131" r="8.6069" fill="#F2F2F1"/>
<circle cx="30.4828" cy="17.7517" r="5.37931" fill="#F2F2F1"/>
<circle cx="35.5035" cy="25.6414" r="6.09655" fill="#F2F2F1"/>
<rect x="15.9488" y="35" width="2.9" height="7.66107" rx="1.45" transform="rotate(31.0265 15.9488 35)" fill="#48484A"/>
<rect x="23.9488" y="34" width="2.9" height="7.66107" rx="1.45" transform="rotate(31.0265 23.9488 34)" fill="#48484A"/>
<rect x="29.9488" y="40" width="2.9" height="5.83817" rx="1.45" transform="rotate(31.0265 29.9488 40)" fill="#48484A"/>
<rect x="32.6688" y="32.1279" width="2.9" height="5.17785" rx="1.45" transform="rotate(31.0265 32.6688 32.1279)" fill="#48484A"/>
<rect x="18.6688" y="28" width="2.9" height="5.17785" rx="1.45" transform="rotate(31.0265 18.6688 28)" fill="#48484A"/>
<rect x="21.2598" y="43" width="2.9" height="4.0209" rx="1.45" transform="rotate(31.0265 21.2598 43)" fill="#48484A"/>
</svg>
