<svg width="48" height="46" viewBox="0 0 48 46" fill="none" xmlns="http://www.w3.org/2000/svg">
<circle cx="38" cy="10" r="10" fill="#EC6E4C"/>
<rect x="7.20001" y="12.8" width="32.8" height="16.8" rx="2" fill="#F2F2F1"/>
<circle cx="20.8" cy="8.8" r="8.8" fill="#F2F2F1"/>
<circle cx="9.6" cy="20" r="9.6" fill="#F2F2F1"/>
<circle cx="34" cy="14.2" r="6" fill="#F2F2F1"/>
<circle cx="39.6" cy="22.8" r="6.8" fill="#F2F2F1"/>
<rect x="18.9488" y="33" width="2.9" height="7.66107" rx="1.45" transform="rotate(31.0265 18.9488 33)" fill="#48484A"/>
<rect x="26.9488" y="32" width="2.9" height="7.66107" rx="1.45" transform="rotate(31.0265 26.9488 32)" fill="#48484A"/>
<rect x="32.9488" y="38" width="2.9" height="5.83817" rx="1.45" transform="rotate(31.0265 32.9488 38)" fill="#48484A"/>
<rect x="35.6688" y="30.1279" width="2.9" height="5.17785" rx="1.45" transform="rotate(31.0265 35.6688 30.1279)" fill="#48484A"/>
<rect x="21.6688" y="26" width="2.9" height="5.17785" rx="1.45" transform="rotate(31.0265 21.6688 26)" fill="#48484A"/>
<rect x="24.2598" y="41" width="2.9" height="4.0209" rx="1.45" transform="rotate(31.0265 24.2598 41)" fill="#48484A"/>
</svg>
