<svg width="28" height="30" viewBox="0 0 28 30" fill="none" xmlns="http://www.w3.org/2000/svg">
<path d="M13.9919 1V7.16667M13.9919 7.16667V22.5833M13.9919 7.16667L9.36688 2.54167M13.9919 7.16667L18.6169 2.54167M13.9919 22.5833V28.75M13.9919 22.5833L9.36688 27.2083M13.9919 22.5833L18.6169 27.2083M1.97738 7.93748L7.31787 11.0208M7.31787 11.0208L20.6691 18.7291M7.31787 11.0208L1 12.7137M7.31787 11.0208L5.625 4.70294M20.6691 18.7291L26.0096 21.8125M20.6691 18.7291L22.362 25.047M20.6691 18.7291L26.987 17.0363M1.97809 21.8125L7.31858 18.7292M7.31858 18.7292L20.6698 11.0208M7.31858 18.7292L1.00071 17.0363M7.31858 18.7292L5.62571 25.047M20.6698 11.0208L26.0103 7.93749M20.6698 11.0208L22.3627 4.70295M20.6698 11.0208L26.9877 12.7137" stroke="#48484A" stroke-width="2" stroke-linecap="round" stroke-linejoin="round"/>
</svg>
